<?xml version="1.0" encoding="UTF-8"?>
<svg id="Layer_1" data-name="Layer 1" xmlns="http://www.w3.org/2000/svg" viewBox="0 0 284.83 94.57">
  <defs>
    <style>
      .cls-1 {
        fill: #fff;
        stroke-width: 0px;
      }
    </style>
  </defs>
  <g>
    <path class="cls-1" d="M28.49,55.27c-.92-.54-1.37-1.35-1.37-2.42,0-.65.09-1.24.28-1.79.18-.55.46-1.21.83-2,.37-.78.67-1.46.89-2.02.22-.56.42-1.24.58-2.04.16-.8.24-1.69.24-2.68v-4.94c0-1.14-.08-2.12-.25-2.94-.17-.82-.37-1.49-.6-2-.23-.51-.53-1.08-.9-1.71-.37-.65-.64-1.18-.81-1.61-.17-.43-.25-.95-.25-1.57,0-.97.28-1.8.83-2.48.55-.68,1.28-1.2,2.17-1.53.89-.34,1.85-.51,2.86-.51,2.34,0,4.12.88,5.35,2.63.94,1.35,1.73,2.78,2.36,4.28s1.15,2.93,1.52,4.3c.38,1.37.79,3.05,1.23,5.05.05.17.12.5.23.99.09.46.26.69.51.69.12,0,.23-.06.33-.18s.17-.29.22-.51c.28-1.35.53-2.53.76-3.53.23-1,.69-2.52,1.38-4.57.69-2.05,1.56-4.01,2.61-5.88.63-1.14,1.45-1.97,2.45-2.49,1-.52,2.11-.78,3.32-.78.95,0,1.85.15,2.69.45.84.3,1.51.74,2.03,1.33.52.58.77,1.28.77,2.1,0,.58-.08,1.12-.25,1.61-.17.49-.42,1.06-.76,1.71-.35.69-.65,1.32-.88,1.88-.23.56-.43,1.26-.59,2.1-.16.84-.24,1.8-.24,2.9v4.94c0,1.11.08,2.07.24,2.9s.35,1.5.55,2.02.5,1.15.87,1.87c.37.71.64,1.29.81,1.75.17.46.25,1,.25,1.61,0,.8-.32,1.49-.95,2.08-.63.58-1.45,1.03-2.45,1.34-1,.31-2.04.46-3.11.46-1.4,0-2.56-.27-3.47-.81-.92-.54-1.37-1.35-1.37-2.42,0-.65.09-1.24.28-1.79.18-.55.46-1.21.83-2,.37-.78.67-1.46.89-2.03.22-.57.42-1.25.58-2.05.16-.8.24-1.7.24-2.7v-5.95c0-1.31-.07-2.32-.21-3.03-.14-.71-.41-1.07-.81-1.07-.49,0-.92.62-1.29,1.87-.37,1.25-.65,2.71-.85,4.38-.2,1.68-.3,3.07-.3,4.18,0,.82-.1,1.55-.29,2.21-.19.66-.62,1.23-1.29,1.7-.67.47-1.65.7-2.94.7-1.74,0-2.96-.47-3.68-1.42-.72-.95-1.07-2.09-1.07-3.43,0-.92-.1-2.21-.29-3.86-.19-1.65-.47-3.13-.83-4.43-.36-1.3-.8-1.95-1.33-1.95s-.89.32-1.05.95c-.16.63-.24,1.59-.24,2.88v5.91c0,1.15.08,2.15.24,3,.16.85.35,1.53.55,2.05.21.52.5,1.15.87,1.87.37.71.64,1.29.81,1.75.17.46.25,1,.25,1.61,0,.8-.32,1.49-.95,2.08s-1.45,1.03-2.45,1.34c-1,.31-2.04.46-3.11.46-1.4,0-2.56-.27-3.47-.81Z"/>
    <path class="cls-1" d="M72.24,55.74c-1.63-.22-2.77-.57-3.41-1.03s-.97-1.08-.97-1.87c0-.65.09-1.24.28-1.79.18-.55.46-1.21.83-2,.37-.78.67-1.46.89-2.02.22-.56.42-1.24.58-2.04.16-.8.24-1.69.24-2.68v-3.55c0-1.45-.09-2.68-.27-3.69s-.39-1.83-.65-2.46c-.25-.62-.56-1.28-.93-1.97-.34-.65-.58-1.18-.74-1.6-.15-.42-.23-.92-.23-1.49,0-1.05.38-1.9,1.13-2.56.75-.66,2-1.15,3.73-1.48,1.73-.32,4.06-.48,7-.48,3.83,0,6.62.4,8.36,1.21,1.75.81,2.62,2.08,2.62,3.82,0,1-.32,1.76-.95,2.27-.63.52-1.36.77-2.19.77-1.05,0-1.91-.17-2.58-.51-.68-.34-1.4-.83-2.17-1.48-.52-.4-.93-.7-1.22-.91-.29-.21-.65-.38-1.06-.53-.42-.15-.88-.22-1.41-.22-.89,0-1.56.26-2.01.77-.45.52-.67,1.43-.67,2.73,0,1.92.04,3.25.13,3.99.08.74.27,1.22.56,1.44.29.22.81.33,1.57.33.51,0,.94-.13,1.3-.38.36-.25.8-.64,1.3-1.17.48-.51.9-.89,1.28-1.15.38-.26.82-.39,1.33-.39.94,0,1.61.42,2.02,1.25s.61,1.95.61,3.37c0,1.29-.15,2.32-.46,3.09-.31.77-.86,1.15-1.66,1.15-.35,0-.66-.07-.91-.2-.25-.13-.58-.34-.98-.63-.58-.45-1.16-.79-1.72-1.03-.56-.24-1.33-.36-2.3-.36-.63,0-1.08.07-1.34.2-.26.13-.44.42-.54.88-.1.45-.15,1.23-.15,2.34,0,2.54.33,4.44.98,5.71.65,1.27,1.74,1.9,3.26,1.9.61,0,1.15-.1,1.61-.3s.85-.45,1.18-.74.7-.68,1.13-1.18c.42-.48.77-.85,1.05-1.12.28-.27.63-.5,1.04-.68.41-.18.88-.28,1.42-.28s1.01.15,1.46.46.81.72,1.08,1.25c.27.52.4,1.09.4,1.71,0,1.57-.32,2.74-.96,3.52-.64.78-1.79,1.32-3.46,1.64-1.67.32-4.18.47-7.53.47-2.98,0-5.29-.11-6.92-.33Z"/>
    <path class="cls-1" d="M100.11,55.28c-1.48-.47-2.21-1.28-2.21-2.43,0-.55.08-1.1.24-1.65.16-.55.45-1.26.86-2.13.63-1.35,1.07-2.53,1.33-3.53.25-1,.38-2.07.38-3.21v-3.55c0-1.71-.14-3.18-.43-4.43-.29-1.25-.76-2.48-1.42-3.69-.37-.72-.62-1.3-.76-1.73-.14-.43-.21-.88-.21-1.36,0-1.51.87-2.64,2.6-3.39,1.73-.75,4.05-1.13,6.96-1.13,3.49,0,6.47.7,8.94,2.1,2.47,1.4,4.33,3.31,5.59,5.74,1.26,2.43,1.89,5.18,1.89,8.26,0,3.92-.55,7.11-1.66,9.56-1.11,2.45-2.9,4.28-5.39,5.48-2.48,1.2-5.79,1.8-9.93,1.8-3.05,0-5.31-.23-6.78-.7ZM114.84,47.94c.95-1.95,1.42-4.8,1.42-8.57,0-2.25-.3-4.2-.91-5.86-.61-1.66-1.45-2.93-2.53-3.82-1.08-.88-2.3-1.33-3.67-1.33-.6,0-1.09.11-1.48.33-.38.22-.68.65-.89,1.27-.21.62-.31,1.5-.31,2.64l.02,6.46c.02,1.46.02,3.29.02,5.49s.34,3.86,1.03,4.83c.68.98,1.76,1.46,3.22,1.46,1.77,0,3.13-.97,4.07-2.92Z"/>
    <path class="cls-1" d="M134.58,55.74c-1.63-.22-2.77-.57-3.41-1.03s-.97-1.08-.97-1.87c0-.65.09-1.24.28-1.79.18-.55.46-1.21.83-2,.37-.78.67-1.47.89-2.06.22-.59.42-1.35.58-2.28.16-.93.24-2.03.24-3.31v-4.01c0-1.14-.08-2.11-.25-2.93-.17-.81-.37-1.48-.6-2.01-.23-.52-.53-1.09-.9-1.71-.37-.61-.64-1.15-.81-1.59-.17-.45-.25-.98-.25-1.59,0-.97.28-1.8.83-2.48.55-.68,1.28-1.2,2.17-1.53.89-.34,1.85-.51,2.86-.51.95,0,1.85.15,2.69.45.84.3,1.51.74,2.03,1.33.52.58.77,1.28.77,2.1,0,.58-.08,1.11-.24,1.57-.16.46-.43,1.05-.8,1.75-.35.71-.64,1.34-.86,1.89-.22.55-.42,1.25-.58,2.09-.16.84-.24,1.8-.24,2.9v4.94c0,2.23.14,4.02.42,5.36.28,1.35.72,2.33,1.34,2.96s1.45.95,2.49.95c.61,0,1.15-.1,1.61-.3s.85-.45,1.18-.74.7-.68,1.13-1.18c.42-.48.77-.85,1.05-1.12.28-.27.63-.5,1.04-.68s.88-.28,1.42-.28,1.01.15,1.46.46c.45.31.82.72,1.08,1.25.27.52.4,1.09.4,1.71,0,1.57-.32,2.74-.96,3.52-.64.78-1.79,1.32-3.46,1.64-1.67.32-4.18.47-7.53.47-2.98,0-5.29-.11-6.92-.33Z"/>
    <path class="cls-1" d="M163.79,55.74c-1.63-.22-2.77-.57-3.41-1.03-.65-.46-.97-1.08-.97-1.87,0-.65.09-1.24.28-1.79.18-.55.46-1.21.83-2,.37-.78.67-1.46.89-2.02.22-.56.42-1.24.58-2.04.16-.8.24-1.69.24-2.68v-3.55c0-1.45-.09-2.68-.27-3.69s-.39-1.83-.65-2.46c-.25-.62-.56-1.28-.93-1.97-.34-.65-.58-1.18-.74-1.6-.15-.42-.23-.92-.23-1.49,0-1.05.38-1.9,1.13-2.56.75-.66,2-1.15,3.73-1.48,1.73-.32,4.06-.48,7-.48,3.83,0,6.62.4,8.36,1.21,1.75.81,2.62,2.08,2.62,3.82,0,1-.32,1.76-.95,2.27-.63.52-1.36.77-2.19.77-1.05,0-1.91-.17-2.58-.51-.68-.34-1.4-.83-2.17-1.48-.52-.4-.93-.7-1.22-.91-.29-.21-.65-.38-1.06-.53-.42-.15-.88-.22-1.41-.22-.89,0-1.56.26-2.01.77-.45.52-.67,1.43-.67,2.73,0,1.92.04,3.25.13,3.99.08.74.27,1.22.56,1.44.29.22.82.33,1.57.33.51,0,.94-.13,1.3-.38.36-.25.8-.64,1.3-1.17.48-.51.9-.89,1.28-1.15.38-.26.82-.39,1.33-.39.94,0,1.61.42,2.02,1.25.41.83.61,1.95.61,3.37,0,1.29-.15,2.32-.46,3.09-.31.77-.86,1.15-1.66,1.15-.35,0-.66-.07-.91-.2-.25-.13-.58-.34-.98-.63-.58-.45-1.16-.79-1.72-1.03-.56-.24-1.33-.36-2.29-.36-.63,0-1.08.07-1.34.2-.26.13-.44.42-.54.88-.1.45-.15,1.23-.15,2.34,0,2.54.33,4.44.98,5.71.65,1.27,1.74,1.9,3.26,1.9.61,0,1.15-.1,1.61-.3.46-.2.85-.45,1.18-.74.32-.29.7-.68,1.13-1.18.42-.48.76-.85,1.05-1.12.28-.27.63-.5,1.04-.68.41-.18.88-.28,1.42-.28s1.01.15,1.46.46c.45.31.81.72,1.08,1.25.27.52.4,1.09.4,1.71,0,1.57-.32,2.74-.96,3.52-.64.78-1.79,1.32-3.46,1.64-1.67.32-4.18.47-7.53.47-2.98,0-5.29-.11-6.92-.33Z"/>
    <path class="cls-1" d="M198.93,55.27c-.92-.54-1.37-1.35-1.37-2.42,0-.63.1-1.22.29-1.76s.48-1.2.87-1.95c.37-.75.66-1.4.87-1.94.21-.54.39-1.18.55-1.93.16-.75.24-1.57.24-2.48-.03-1.06-.16-1.89-.39-2.49-.23-.6-.54-1.18-.92-1.75l-.3-.46c-.63-1.03-1.32-1.89-2.08-2.58-.75-.69-1.47-1.24-2.16-1.65-.68-.41-1.52-.85-2.5-1.33-.91-.43-1.6-.8-2.09-1.12-.48-.31-.88-.72-1.19-1.22-.31-.5-.46-1.14-.46-1.93,0-1,.28-1.9.85-2.7.57-.8,1.29-1.43,2.18-1.88s1.77-.68,2.64-.68c1.52,0,2.65.4,3.37,1.2.72.8,1.2,1.97,1.43,3.51.12.81.27,1.51.43,2.1.16.58.48,1.27.95,2.05.47.78,1.15,1.71,2.04,2.77.43.55.79.83,1.06.83.35,0,.74-.32,1.15-.97l.28-.42c.68-1.06,1.2-1.99,1.58-2.79.38-.8.63-1.76.77-2.88.25-1.83.9-3.19,1.97-4.07,1.07-.88,2.44-1.33,4.12-1.33.91,0,1.75.16,2.53.47.78.32,1.4.76,1.86,1.33.46.57.69,1.23.69,1.98,0,.83-.19,1.56-.57,2.19-.38.63-.85,1.18-1.42,1.65-.57.47-1.37,1.05-2.4,1.74-1.21.78-2.24,1.52-3.07,2.2-.83.68-1.58,1.5-2.24,2.46-.63.88-1.1,1.58-1.4,2.1-.3.52-.52,1.05-.66,1.57-.14.52-.22,1.18-.25,1.96,0,1.34.14,2.44.42,3.3.28.86.68,1.78,1.2,2.77.38.71.67,1.31.84,1.8.18.49.27,1.05.27,1.68,0,.8-.32,1.49-.95,2.08s-1.45,1.03-2.45,1.34-2.04.46-3.11.46c-1.4,0-2.56-.27-3.47-.81Z"/>
    <path class="cls-1" d="M228.76,55.18c-1.79-.6-3.13-1.41-4.03-2.45-.89-1.03-1.34-2.18-1.34-3.44,0-.81.18-1.58.53-2.31.35-.72.88-1.31,1.58-1.76.7-.45,1.53-.68,2.5-.68.86,0,1.56.11,2.11.32.55.22,1.01.57,1.41,1.06.39.49.79,1.2,1.19,2.12.42,1,.93,1.72,1.56,2.16.62.44,1.46.66,2.5.66,1.17,0,2.05-.32,2.63-.96.58-.64.88-1.44.88-2.41,0-.77-.26-1.45-.77-2.04-.52-.59-1.15-1.11-1.89-1.55-.75-.44-1.84-1.01-3.29-1.72-2-.94-3.63-1.81-4.89-2.62-1.26-.81-2.35-1.87-3.25-3.18-.91-1.32-1.36-2.92-1.36-4.81s.51-3.52,1.52-4.8c1.02-1.28,2.35-2.22,4.01-2.83s3.48-.91,5.44-.91c2.31,0,4.23.33,5.76.98,1.53.65,2.65,1.47,3.37,2.46.72.98,1.07,1.99,1.07,3.02,0,.92-.2,1.71-.6,2.35-.4.65-.94,1.13-1.62,1.45-.68.32-1.42.48-2.21.48-1.26,0-2.2-.29-2.81-.88s-1.08-1.46-1.38-2.63c-.18-.88-.5-1.51-.95-1.9-.45-.39-1.13-.59-2.05-.59-.98,0-1.78.26-2.4.77-.62.52-.92,1.2-.92,2.04,0,.92.29,1.73.87,2.43.58.7,1.29,1.3,2.15,1.8.85.5,2.05,1.12,3.59,1.86,2,.94,3.63,1.81,4.89,2.61,1.26.8,2.34,1.85,3.23,3.16.89,1.31,1.34,2.91,1.34,4.8s-.46,3.43-1.37,4.74c-.92,1.31-2.25,2.32-4.01,3.02-1.76.7-3.9,1.05-6.43,1.05s-4.75-.3-6.54-.9Z"/>
  </g>
  <g>
    <path class="cls-1" d="M60.95,93.92c-.73-.43-1.09-1.07-1.09-1.93,0-.43.06-.8.17-1.1.12-.31.27-.57.46-.79.19-.22.46-.5.8-.83.43-.42.8-.82,1.11-1.21s.68-1.01,1.1-1.86c.42-.85.86-1.97,1.32-3.37l.7-2.13c.49-1.51.83-2.78,1.01-3.8s.28-1.92.28-2.7c0-.32-.01-.7-.04-1.14-.02-.25-.04-.41-.04-.5l-.02-.48c-.01-.1-.02-.25-.02-.44,0-.69.25-1.29.74-1.81s1.13-.92,1.9-1.2c.78-.28,1.58-.41,2.4-.41,1.14,0,2.09.25,2.86.74.77.49,1.15,1.21,1.15,2.17,0,.2-.02.52-.07.96l-.04.39c-.05.54-.07,1.02-.07,1.44,0,1.68.39,3.81,1.18,6.39l1.1,3.61c.34,1.12.67,2.01.98,2.69.31.67.57,1.15.77,1.44.2.28.49.64.86,1.07.37.41.63.77.79,1.09.16.32.24.75.24,1.31,0,.64-.25,1.19-.75,1.66-.5.47-1.15.82-1.95,1.07-.8.25-1.63.37-2.48.37-1.12,0-2.04-.21-2.77-.64-.73-.43-1.1-1.07-1.1-1.93,0-.37.05-.67.14-.92.09-.25.24-.56.45-.96.22-.33.42-.75.61-1.26.18-.51.28-.92.28-1.24,0-.42-.2-.75-.61-.99s-.87-.37-1.38-.37h-1.8c-.71,0-1.23.14-1.56.43-.33.29-.5.7-.5,1.22,0,.36.04.68.12.98.08.3.2.66.36,1.08.14.33.23.6.29.81.06.21.08.44.08.7,0,.64-.25,1.19-.75,1.66-.5.47-1.15.82-1.95,1.07-.8.25-1.63.37-2.48.37-1.12,0-2.04-.21-2.77-.64ZM71.45,83.82c.45,0,.81-.12,1.06-.36s.38-.57.38-1-.05-.95-.14-1.56c-.09-.61-.23-1.4-.41-2.38l-.11-.59c-.17-.65-.32-1.39-.44-2.21-.04-.21-.11-.37-.21-.49-.1-.12-.21-.17-.3-.17-.23,0-.4.22-.52.66l-.22,1.05c-.15.71-.28,1.31-.4,1.79-.22.93-.39,1.71-.5,2.35s-.17,1.17-.17,1.63c0,.41.13.72.39.95.26.23.61.34,1.05.34h.55Z"/>
    <path class="cls-1" d="M104,92.83c-1.53-1.16-2.68-2.74-3.44-4.73-.76-1.99-1.14-4.24-1.14-6.75s.46-4.63,1.39-6.63,2.22-3.59,3.88-4.76c1.66-1.17,3.56-1.76,5.7-1.76,1.69,0,3.13.38,4.3,1.15,1.17.77,2.04,1.7,2.61,2.81.57,1.1.86,2.15.86,3.15,0,1.04-.21,1.89-.62,2.54-.41.65-.93,1.12-1.56,1.41-.63.29-1.3.43-2.02.43-.96,0-1.67-.27-2.14-.82-.47-.55-.7-1.22-.7-2.02,0-.47.07-.97.2-1.51.01-.09.04-.26.09-.53.05-.27.07-.53.07-.79,0-.7-.17-1.24-.52-1.63-.34-.39-.77-.58-1.29-.58-.79,0-1.49.4-2.12,1.21-.63.8-1.11,1.9-1.45,3.28-.34,1.38-.52,2.9-.52,4.57,0,2.8.35,5.01,1.06,6.64.71,1.63,1.9,2.45,3.58,2.45.59,0,1.11-.1,1.56-.31.45-.21.83-.47,1.14-.77.31-.31.66-.71,1.05-1.2.36-.43.64-.75.86-.98.21-.22.47-.41.76-.56s.63-.23.99-.23c.42,0,.77.14,1.05.41.28.28.42.64.42,1.09,0,1.1-.36,2.21-1.07,3.31-.71,1.1-1.71,2.02-2.99,2.74-1.28.72-2.74,1.09-4.37,1.09-2.23,0-4.12-.58-5.65-1.74Z"/>
    <path class="cls-1" d="M123.89,93.92c-.73-.43-1.09-1.07-1.09-1.93,0-.43.06-.8.17-1.1.12-.31.27-.57.46-.79.19-.22.46-.5.8-.83.43-.42.8-.82,1.11-1.21s.68-1.01,1.1-1.86c.42-.85.86-1.97,1.32-3.37l.7-2.13c.49-1.51.83-2.78,1.01-3.8s.28-1.92.28-2.7c0-.32-.01-.7-.04-1.14-.02-.25-.04-.41-.04-.5l-.02-.48c-.01-.1-.02-.25-.02-.44,0-.69.25-1.29.74-1.81s1.13-.92,1.9-1.2c.78-.28,1.58-.41,2.4-.41,1.14,0,2.09.25,2.86.74.77.49,1.15,1.21,1.15,2.17,0,.2-.02.52-.07.96l-.04.39c-.05.54-.07,1.02-.07,1.44,0,1.68.39,3.81,1.18,6.39l1.1,3.61c.34,1.12.67,2.01.98,2.69.31.67.57,1.15.77,1.44.2.28.49.64.86,1.07.37.41.63.77.79,1.09.16.32.24.75.24,1.31,0,.64-.25,1.19-.75,1.66-.5.47-1.15.82-1.95,1.07-.8.25-1.63.37-2.48.37-1.12,0-2.04-.21-2.77-.64-.73-.43-1.1-1.07-1.1-1.93,0-.37.05-.67.14-.92.09-.25.24-.56.45-.96.22-.33.42-.75.61-1.26.18-.51.28-.92.28-1.24,0-.42-.2-.75-.61-.99s-.87-.37-1.38-.37h-1.8c-.71,0-1.23.14-1.56.43-.33.29-.5.7-.5,1.22,0,.36.04.68.12.98.08.3.2.66.36,1.08.14.33.23.6.29.81.06.21.08.44.08.7,0,.64-.25,1.19-.75,1.66-.5.47-1.15.82-1.95,1.07-.8.25-1.63.37-2.48.37-1.12,0-2.04-.21-2.77-.64ZM134.39,83.82c.45,0,.81-.12,1.06-.36s.38-.57.38-1-.05-.95-.14-1.56c-.09-.61-.23-1.4-.41-2.38l-.11-.59c-.17-.65-.32-1.39-.44-2.21-.04-.21-.11-.37-.21-.49-.1-.12-.21-.17-.3-.17-.23,0-.4.22-.52.66l-.22,1.05c-.15.71-.28,1.31-.4,1.79-.22.93-.39,1.71-.5,2.35s-.17,1.17-.17,1.63c0,.41.13.72.39.95.26.23.61.34,1.05.34h.55Z"/>
    <path class="cls-1" d="M150.65,93.92c-.73-.43-1.09-1.07-1.09-1.93,0-.52.07-.98.21-1.39s.37-.9.67-1.48c.43-.83.76-1.65,1-2.45.24-.8.36-1.82.36-3.07v-2.83c0-1.15-.07-2.13-.21-2.94-.14-.81-.31-1.46-.52-1.96-.2-.5-.45-1.02-.75-1.57-.27-.52-.47-.94-.59-1.28-.12-.34-.18-.73-.18-1.19,0-1.23.64-2.13,1.91-2.72s3.3-.88,6.08-.88c2.6,0,4.77.39,6.5,1.17,1.73.78,2.59,2.3,2.59,4.57,0,2.01-.6,3.58-1.81,4.7-1.21,1.12-2.91,1.91-5.11,2.37-.92.2-1.59.38-2,.54-.41.17-.73.45-.95.86-.22.4-.33,1.02-.33,1.84,0,.99.11,1.81.32,2.45.21.64.52,1.31.93,2.01.32.56.55,1.03.7,1.41.15.37.22.83.22,1.35,0,.64-.25,1.19-.75,1.66-.5.47-1.15.82-1.95,1.07-.8.25-1.63.37-2.48.37-1.12,0-2.04-.21-2.77-.64ZM159.94,77.51c.47-.32.82-.73,1.05-1.21.23-.48.34-.97.34-1.46s-.09-.95-.28-1.43-.49-.87-.91-1.19c-.42-.32-.96-.48-1.61-.48-.71,0-1.25.21-1.6.62-.36.41-.53,1.14-.53,2.18,0,.98.08,1.72.24,2.23s.36.83.62.99c.25.16.57.24.95.24.69,0,1.27-.16,1.74-.49Z"/>
    <path class="cls-1" d="M172.7,93.92c-.73-.43-1.1-1.07-1.1-1.93,0-.52.07-.98.21-1.39.14-.41.36-.9.67-1.48.43-.83.76-1.65,1-2.45.24-.8.36-1.82.36-3.07v-2.83c0-1.15-.07-2.13-.21-2.94-.14-.81-.31-1.46-.51-1.96-.2-.5-.45-1.02-.75-1.57-.27-.52-.47-.94-.59-1.28-.12-.34-.18-.73-.18-1.19,0-1.23.64-2.13,1.91-2.72,1.27-.59,3.3-.88,6.08-.88,2.6,0,4.77.39,6.5,1.17,1.73.78,2.6,2.3,2.6,4.57,0,2.01-.6,3.58-1.81,4.7-1.21,1.12-2.91,1.91-5.11,2.37-.92.2-1.59.38-2,.54-.41.17-.73.45-.95.86-.22.4-.33,1.02-.33,1.84,0,.99.11,1.81.32,2.45.21.64.52,1.31.93,2.01.32.56.55,1.03.7,1.41s.22.83.22,1.35c0,.64-.25,1.19-.75,1.66-.5.47-1.15.82-1.95,1.07-.8.25-1.62.37-2.48.37-1.12,0-2.04-.21-2.77-.64ZM181.99,77.51c.47-.32.82-.73,1.05-1.21.23-.48.34-.97.34-1.46s-.09-.95-.28-1.43c-.18-.47-.49-.87-.91-1.19-.42-.32-.96-.48-1.61-.48-.71,0-1.25.21-1.6.62-.36.41-.53,1.14-.53,2.18,0,.98.08,1.72.24,2.23.16.5.37.83.62.99.25.16.57.24.95.24.69,0,1.27-.16,1.74-.49Z"/>
    <path class="cls-1" d="M197.15,94.3c-1.3-.18-2.21-.45-2.72-.82s-.77-.86-.77-1.49c0-.52.07-.99.22-1.43.15-.44.37-.97.66-1.59s.53-1.16.71-1.61c.18-.45.33-.99.46-1.63.13-.64.19-1.35.19-2.13v-2.83c0-1.15-.07-2.13-.21-2.94-.14-.81-.31-1.46-.51-1.96-.2-.5-.45-1.02-.75-1.57-.27-.52-.47-.94-.59-1.28-.12-.34-.18-.73-.18-1.19,0-.83.3-1.52.9-2.04.6-.53,1.59-.92,2.97-1.18,1.38-.26,3.24-.39,5.58-.39,3.06,0,5.28.32,6.67.97,1.39.64,2.09,1.66,2.09,3.05,0,.8-.25,1.4-.75,1.81-.5.41-1.09.62-1.75.62-.83,0-1.52-.13-2.06-.4s-1.12-.66-1.73-1.18c-.42-.32-.74-.56-.97-.73-.23-.17-.52-.31-.85-.42s-.71-.17-1.12-.17c-.71,0-1.25.21-1.6.62-.36.41-.53,1.14-.53,2.18,0,1.53.03,2.59.1,3.18.07.59.22.97.45,1.15.23.18.65.27,1.25.27.4,0,.75-.1,1.04-.3.29-.2.64-.51,1.04-.93.38-.41.72-.71,1.02-.92.3-.21.65-.31,1.06-.31.75,0,1.29.33,1.61.99.33.66.49,1.56.49,2.69,0,1.03-.12,1.85-.37,2.47-.25.61-.69.92-1.32.92-.28,0-.53-.05-.73-.16-.2-.1-.46-.27-.78-.51-.47-.36-.92-.63-1.37-.82-.45-.19-1.06-.29-1.83-.29-.5,0-.86.05-1.07.16s-.35.34-.43.7-.12.98-.12,1.87c0,2.02.26,3.54.78,4.55.52,1.01,1.39,1.52,2.6,1.52.49,0,.92-.08,1.29-.24.37-.16.68-.36.94-.59.26-.23.56-.55.9-.94.33-.38.61-.68.84-.89.23-.21.5-.4.83-.54.32-.15.7-.22,1.13-.22s.81.12,1.17.37c.36.25.65.58.87.99.21.42.32.87.32,1.36,0,1.25-.25,2.19-.76,2.81s-1.43,1.06-2.76,1.31c-1.33.25-3.33.38-6.01.38-2.38,0-4.22-.09-5.52-.27Z"/>
    <path class="cls-1" d="M221.11,94.3c-1.3-.18-2.21-.45-2.72-.82-.51-.37-.77-.86-.77-1.49,0-.52.07-.99.22-1.43.15-.44.37-.97.66-1.59.29-.63.53-1.17.71-1.65.18-.47.33-1.08.46-1.82s.19-1.62.19-2.64v-3.2c0-.91-.07-1.69-.2-2.34-.14-.65-.29-1.18-.48-1.6-.18-.42-.42-.87-.72-1.36-.29-.49-.51-.91-.64-1.27-.14-.36-.2-.78-.2-1.27,0-.77.22-1.43.66-1.98.44-.55,1.02-.95,1.73-1.22.71-.27,1.47-.4,2.28-.4.76,0,1.48.12,2.14.36.67.24,1.21.59,1.62,1.06.41.47.62,1.02.62,1.67,0,.47-.06.88-.19,1.25s-.34.83-.63,1.4c-.28.56-.51,1.07-.69,1.51-.18.44-.33,1-.46,1.67-.13.67-.19,1.44-.19,2.31v3.94c0,1.78.11,3.21.33,4.28.22,1.07.58,1.86,1.07,2.36.49.5,1.15.75,1.99.75.49,0,.92-.08,1.29-.24s.68-.36.94-.59.56-.55.9-.94c.33-.38.61-.68.84-.89s.5-.4.83-.54c.32-.15.7-.22,1.13-.22s.81.12,1.17.37c.36.25.65.58.87.99.21.42.32.87.32,1.36,0,1.25-.25,2.19-.76,2.81-.51.62-1.43,1.06-2.76,1.31-1.33.25-3.33.38-6.01.38-2.38,0-4.22-.09-5.52-.27Z"/>
    <path class="cls-1" d="M244.41,94.3c-1.3-.18-2.21-.45-2.72-.82s-.77-.86-.77-1.49c0-.52.07-.99.22-1.43s.37-.97.66-1.59c.29-.63.53-1.17.71-1.65.18-.47.33-1.08.46-1.82s.19-1.62.19-2.64v-3.2c0-.91-.07-1.69-.2-2.34-.13-.65-.29-1.18-.48-1.6-.18-.42-.42-.87-.72-1.36-.29-.49-.51-.91-.64-1.27-.13-.36-.2-.78-.2-1.27,0-.77.22-1.43.66-1.98.44-.55,1.02-.95,1.73-1.22.71-.27,1.47-.4,2.28-.4.76,0,1.47.12,2.14.36s1.21.59,1.62,1.06c.41.47.62,1.02.62,1.67,0,.47-.06.88-.19,1.25s-.34.83-.63,1.4c-.28.56-.51,1.07-.69,1.51-.18.44-.33,1-.46,1.67-.13.67-.19,1.44-.19,2.31v3.94c0,1.78.11,3.21.33,4.28.22,1.07.58,1.86,1.07,2.36.49.5,1.15.75,1.99.75.49,0,.92-.08,1.29-.24s.68-.36.94-.59c.26-.23.56-.55.9-.94.33-.38.61-.68.84-.89s.5-.4.83-.54c.33-.15.7-.22,1.13-.22s.81.12,1.17.37c.36.25.65.58.87.99.21.42.32.87.32,1.36,0,1.25-.25,2.19-.76,2.81-.51.62-1.43,1.06-2.76,1.31-1.33.25-3.33.38-6.01.38-2.38,0-4.22-.09-5.52-.27Z"/>
    <path class="cls-1" d="M264.28,93.92c-.73-.43-1.1-1.07-1.1-1.93,0-.43.06-.8.18-1.1.12-.31.27-.57.46-.79.19-.22.46-.5.8-.83.43-.42.8-.82,1.11-1.21.31-.39.68-1.01,1.11-1.86.42-.85.86-1.97,1.32-3.37l.7-2.13c.49-1.51.83-2.78,1.01-3.8.18-1.02.28-1.92.28-2.7,0-.32-.01-.7-.04-1.14-.02-.25-.04-.41-.04-.5l-.02-.48c-.01-.1-.02-.25-.02-.44,0-.69.25-1.29.74-1.81s1.13-.92,1.91-1.2c.78-.28,1.58-.41,2.4-.41,1.14,0,2.09.25,2.86.74.77.49,1.15,1.21,1.15,2.17,0,.2-.03.52-.07.96l-.04.39c-.05.54-.07,1.02-.07,1.44,0,1.68.39,3.81,1.18,6.39l1.1,3.61c.34,1.12.67,2.01.98,2.69s.57,1.15.77,1.44c.2.28.49.64.86,1.07.37.41.63.77.79,1.09.16.32.24.75.24,1.31,0,.64-.25,1.19-.75,1.66-.5.47-1.15.82-1.95,1.07-.8.25-1.63.37-2.48.37-1.12,0-2.04-.21-2.77-.64-.73-.43-1.09-1.07-1.09-1.93,0-.37.05-.67.14-.92.09-.25.24-.56.45-.96.22-.33.42-.75.61-1.26.18-.51.28-.92.28-1.24,0-.42-.2-.75-.61-.99s-.87-.37-1.38-.37h-1.8c-.71,0-1.23.14-1.56.43-.33.29-.5.7-.5,1.22,0,.36.04.68.12.98.08.3.2.66.36,1.08.13.33.23.6.29.81.05.21.08.44.08.7,0,.64-.25,1.19-.75,1.66-.5.47-1.15.82-1.95,1.07-.8.25-1.62.37-2.48.37-1.12,0-2.04-.21-2.77-.64ZM274.78,83.82c.45,0,.81-.12,1.06-.36s.38-.57.38-1-.05-.95-.14-1.56-.23-1.4-.41-2.38l-.11-.59c-.17-.65-.32-1.39-.44-2.21-.04-.21-.11-.37-.21-.49-.1-.12-.21-.17-.3-.17-.23,0-.41.22-.51.66l-.22,1.05c-.15.71-.28,1.31-.41,1.79-.22.93-.39,1.71-.5,2.35-.11.63-.17,1.17-.17,1.63,0,.41.13.72.39.95.26.23.61.34,1.05.34h.55Z"/>
  </g>
  <g>
    <path class="cls-1" d="M216.13,15.5l1.2-1.42.56.48-1.79,2.1-4.24-3.6.58-.69,3.67,3.13Z"/>
    <path class="cls-1" d="M220.88,11.44c-.49.05-.96-.03-1.42-.24-.46-.21-.84-.54-1.16-.98-.32-.44-.5-.91-.54-1.41s.04-.97.25-1.42c.21-.45.52-.82.94-1.11.42-.3.88-.47,1.37-.52.49-.05.96.03,1.41.24.45.21.83.54,1.15.98.32.44.5.91.55,1.41.05.5-.03.97-.24,1.42-.21.45-.53.82-.95,1.12-.42.3-.87.47-1.36.52ZM222.43,9.51c.13-.3.18-.63.13-.97-.05-.35-.19-.69-.43-1.02-.24-.33-.51-.58-.82-.74-.31-.16-.63-.22-.96-.19-.33.03-.64.15-.94.36-.3.21-.51.47-.65.77-.14.3-.18.62-.13.97.05.35.19.69.43,1.02s.51.58.82.74c.31.16.63.23.96.2s.64-.15.94-.36c.3-.21.51-.47.65-.77Z"/>
    <path class="cls-1" d="M230.12,1.04l-.14,5.93-.99.34-3.77-4.58.91-.31,3.04,3.84.04-4.9.9-.31Z"/>
    <path class="cls-1" d="M235.58.91l.13,1.63,1.89-.15.06.74-1.89.15.13,1.7,2.13-.17.06.74-3.03.24-.44-5.55,3.03-.24.06.74-2.13.17Z"/>
    <path class="cls-1" d="M250.95,2.19l-.23.71-2.22-.71-.5,1.56,1.73.55-.23.71-1.73-.55-.74,2.32-.86-.27,1.7-5.3,3.08.99Z"/>
    <path class="cls-1" d="M253.32,9.13c-.23-.44-.33-.91-.31-1.41s.19-.98.48-1.44c.29-.46.67-.8,1.11-1.03s.91-.33,1.41-.3c.49.03.95.18,1.38.46.43.28.77.64,1,1.07s.33.9.31,1.4c-.03.5-.19.97-.48,1.43-.29.46-.66.8-1.11,1.03-.44.23-.91.33-1.4.3-.49-.03-.96-.18-1.39-.46-.43-.28-.76-.63-.99-1.07ZM255.7,9.85c.33.01.65-.07.95-.24.3-.18.57-.44.79-.78s.35-.69.38-1.04c.03-.35-.03-.67-.17-.96-.15-.29-.38-.54-.68-.74-.31-.2-.62-.3-.95-.32-.33-.02-.64.06-.95.24s-.57.43-.79.78c-.22.35-.35.69-.38,1.04-.03.35.02.67.17.97.15.3.38.54.68.74s.62.3.95.31Z"/>
    <path class="cls-1" d="M261,16.04l.83-2.42-.46-.51-1.66,1.48-.6-.67,4.16-3.69,1.26,1.42c.28.32.46.63.54.95s.08.61-.01.89c-.09.27-.25.51-.48.72-.27.24-.59.38-.95.42-.36.04-.72-.07-1.09-.32l-.82,2.55-.71-.8ZM261.92,12.62l.66.75c.22.25.46.39.7.4.24.01.47-.07.69-.26.21-.19.33-.4.34-.64,0-.23-.1-.48-.33-.74l-.66-.75-1.4,1.24Z"/>
    <path class="cls-1" d="M269.8,26.37c-.28-.05-.54-.18-.78-.41s-.43-.55-.58-.98l-.31-.95-2.14.71-.28-.86,5.28-1.75.6,1.8c.13.4.18.76.13,1.09s-.17.59-.36.81c-.19.22-.43.37-.73.47-.27.09-.54.11-.82.06ZM269.62,25.39c.2.11.44.12.71.03.58-.19.76-.61.54-1.25l-.31-.95-1.72.57.31.95c.11.33.26.54.47.65Z"/>
    <path class="cls-1" d="M272.41,31.27l-1.63.14.17,1.89-.74.06-.17-1.89-1.7.15.19,2.13-.74.06-.27-3.02,5.55-.49.27,3.02-.74.06-.19-2.13Z"/>
    <path class="cls-1" d="M267.9,38.46c.31-.38.7-.66,1.17-.84.47-.18.97-.22,1.51-.13.54.09,1,.29,1.38.61s.66.71.83,1.17c.17.46.21.95.13,1.45-.08.51-.28.96-.59,1.34-.31.38-.7.66-1.17.83s-.97.21-1.5.13c-.54-.09-1-.29-1.39-.61-.39-.32-.67-.71-.83-1.17-.17-.46-.21-.95-.13-1.46.08-.5.28-.95.59-1.33ZM268.17,40.93c.12.31.32.57.6.78.28.21.62.35,1.03.42.4.07.77.05,1.1-.06.33-.11.6-.29.81-.54s.34-.56.4-.92c.06-.36.03-.69-.08-1-.12-.31-.31-.57-.59-.78s-.62-.35-1.03-.42c-.41-.07-.77-.05-1.11.06-.33.11-.61.29-.82.54-.21.25-.35.56-.41.92-.06.36-.03.69.09,1Z"/>
    <path class="cls-1" d="M267.09,50.29c-.17-.22-.27-.5-.29-.83s.06-.7.25-1.11l.42-.9-2.05-.95.38-.82,5.05,2.33-.79,1.72c-.18.38-.39.68-.65.88s-.53.32-.82.35c-.29.03-.57-.02-.85-.15-.26-.12-.47-.29-.64-.51ZM267.62,49.45c.07.22.24.39.5.51.55.25.97.07,1.25-.54l.42-.9-1.65-.76-.42.9c-.14.31-.18.58-.11.79Z"/>
    <path class="cls-1" d="M262.41,53.12l-1.13,1.47-.58-.45,1.68-2.19,4.41,3.39-.55.71-3.82-2.94Z"/>
    <path class="cls-1" d="M260.88,60.74l-1.05-1.25-1.45,1.22-.48-.57,1.45-1.22-1.1-1.3-1.63,1.38-.48-.57,2.32-1.96,3.59,4.26-2.32,1.96-.48-.57,1.63-1.38Z"/>
  </g>
  <g>
    <path class="cls-1" d="M10.23,25.06l-1.27,1.36-.54-.5,1.89-2.01,4.06,3.8-.62.66-3.52-3.3Z"/>
    <path class="cls-1" d="M5.47,30.51c.42-.26.88-.39,1.38-.39.5,0,.99.12,1.46.39.47.27.84.61,1.09,1.04.25.43.38.89.38,1.38s-.12.96-.37,1.41c-.25.45-.59.8-1.01,1.06-.42.26-.88.39-1.38.39s-.98-.13-1.46-.39c-.47-.27-.84-.61-1.1-1.04s-.39-.89-.39-1.38c0-.49.12-.97.38-1.42.25-.45.59-.8,1.01-1.05ZM4.89,32.92c0,.33.11.64.3.93.19.29.47.54.83.74s.71.31,1.06.32c.35.01.66-.07.95-.23.28-.17.51-.41.69-.73.18-.32.26-.64.26-.97,0-.33-.1-.64-.29-.93-.19-.29-.47-.54-.82-.74-.36-.2-.71-.31-1.06-.32s-.67.06-.95.23-.52.41-.69.73c-.18.32-.26.64-.26.97Z"/>
    <path class="cls-1" d="M5.82,44.28l-4.92-3.32.25-1.01,5.89-.7-.23.94-4.88.49,4.11,2.68-.22.92Z"/>
    <path class="cls-1" d="M4.84,48.22l-1.63.03.03,1.9h-.74s-.03-1.88-.03-1.88l-1.7.03.03,2.13H.05s-.05-3.02-.05-3.02l5.57-.09.05,3.04h-.74s-.03-2.12-.03-2.12Z"/>
    <path class="cls-1" d="M8.19,61.21l-.69.27-.83-2.18-1.53.59.65,1.7-.69.27-.65-1.7-2.27.87-.32-.84,5.19-1.99,1.16,3.02Z"/>
    <path class="cls-1" d="M5.92,67.91c-.05-.49.03-.96.24-1.42s.54-.84.98-1.15c.44-.31.91-.49,1.41-.54.5-.05.97.04,1.42.25.45.21.82.52,1.11.94.3.42.47.88.52,1.37s-.03.96-.24,1.41c-.21.45-.54.83-.98,1.15-.44.31-.91.5-1.41.55s-.97-.03-1.42-.24c-.45-.21-.82-.53-1.12-.95-.3-.42-.47-.87-.52-1.36ZM7.86,69.46c.3.14.63.18.97.13.35-.05.69-.19,1.02-.43.33-.24.58-.51.74-.82.16-.31.22-.63.2-.96-.03-.33-.15-.64-.36-.94-.21-.3-.46-.51-.76-.65s-.62-.18-.97-.13c-.35.05-.69.19-1.02.43-.33.24-.58.51-.75.82-.16.31-.23.63-.2.96.03.33.15.64.36.94.21.3.47.51.77.65Z"/>
    <path class="cls-1" d="M13.54,76.64l.44-2.52-.53-.44-1.41,1.72-.7-.57,3.54-4.29,1.46,1.21c.33.27.55.55.68.85s.17.59.12.88c-.05.29-.17.55-.37.79-.23.28-.52.47-.87.56-.35.1-.72.05-1.13-.14l-.42,2.64-.83-.68ZM13.91,73.12l.77.63c.26.21.51.31.75.29s.45-.15.64-.37.26-.45.23-.68-.17-.46-.44-.68l-.77-.63-1.19,1.44Z"/>
    <path class="cls-1" d="M30.37,78.16l-1.37,5.39-.87-.22.94-3.69-2.56,3.28-.6-.15-.7-4.1-.94,3.69-.87-.22,1.37-5.39.94.24.8,4.7,2.93-3.75.94.24Z"/>
    <path class="cls-1" d="M34.65,78.36l.15,3.54c.02.42.14.73.37.94s.54.3.93.28c.4-.02.7-.14.91-.36.21-.22.31-.54.29-.96l-.15-3.54.9-.04.15,3.52c.02.45-.06.84-.24,1.16-.18.32-.43.57-.75.74-.32.17-.68.26-1.07.28-.4.02-.76-.04-1.09-.19-.33-.14-.6-.36-.8-.67-.2-.31-.31-.69-.33-1.14l-.15-3.52.9-.04Z"/>
    <path class="cls-1" d="M43.79,82.53c-.32-.04-.6-.15-.83-.33-.23-.18-.4-.42-.49-.73l.92-.28c.09.22.24.38.44.48.2.1.45.1.74.02.3-.09.51-.24.63-.43.12-.2.15-.41.08-.64-.06-.18-.15-.31-.29-.39-.14-.08-.29-.13-.47-.14-.17-.01-.41-.01-.7,0-.37.01-.68,0-.92-.02s-.47-.12-.68-.27-.37-.39-.47-.72c-.09-.31-.1-.6-.02-.87.08-.28.24-.52.47-.72.23-.21.53-.36.89-.48.51-.16.96-.16,1.37,0,.4.16.69.45.87.89l-.95.29c-.07-.19-.22-.33-.43-.41s-.45-.09-.72,0c-.25.08-.43.2-.55.38s-.14.38-.06.62c.05.16.14.28.27.36s.28.12.45.13.4.02.68,0c.38-.01.69,0,.94.03.25.03.48.12.7.27.22.15.38.4.48.74.08.27.09.55.02.83-.07.28-.22.54-.45.77-.23.23-.53.4-.9.52-.35.11-.69.14-1.01.11Z"/>
    <path class="cls-1" d="M48.85,74.58l2.67,4.87-.79.43-2.67-4.87.79-.43Z"/>
    <path class="cls-1" d="M52.76,73.68c-.1-.49-.07-.97.1-1.43.16-.47.43-.87.82-1.21.44-.39.93-.62,1.46-.7s1.05,0,1.56.27l-.81.72c-.3-.13-.59-.16-.88-.1-.29.06-.55.2-.8.42-.27.24-.46.52-.57.83-.1.31-.11.64-.03.98.08.34.26.66.53.97.27.31.57.53.89.65s.65.16.97.1.62-.21.9-.45c.25-.22.42-.47.52-.74s.1-.57.01-.88l.81-.72c.2.54.22,1.06.07,1.58-.15.52-.45.97-.89,1.36-.39.34-.82.56-1.3.66-.48.1-.96.07-1.43-.09s-.89-.44-1.25-.85c-.36-.41-.59-.86-.69-1.35Z"/>
  </g>
</svg>